# xmcd
#
# Track frame offsets: 
#        150
#        12363
#        25308
#        35798
#        47866
#        60198
#        72791
#        82263
#        89808
#        106258
#        119208
#        136453
#        155045
#        173508
#        182863
#        196421
#        210578
#        222420
#        234821
#        246801
#        259603
#        271930
#        286075
#        298656
#        310573
#
# Disc length: 4326 seconds
#
# Revision: 1
# Processed by: cddbd v1.5.2PL0 Copyright (c) Steve Scherf et al.
# Submitted via: ExactAudioCopy v1.0b3
#
DISCID=7310e419
DTITLE=Various Artist - Jazz Ladies and Stan Kenton
DYEAR=1996
DGENRE=Jazz
TTITLE0=Chris Connor - and the bull walked around, olay
TTITLE1=Chris Connor - all about ronnie
TTITLE2=Chris Connor - jeepers creepers
TTITLE3=Chris Connor - if i should lose you
TTITLE4=Chris Connor - i get a kick out of you
TTITLE5=Kay Brown - lonesome train
TTITLE6=Jean Turner - a lot of livin' to do
TTITLE7=Jean Turner - it's a big, wide, wonderful world
TTITLE8=Ann Richards - black coffee
TTITLE9=Ann Richards - the thrill is gone
TTITLE10=Ann Richards - don't be that way
TTITLE11=Ann Richards - i got rhythm
TTITLE12=Ann Richards - the morning after
TTITLE13=June Christy - daddy
TTITLE14=June Christy - ain't no misery in me
TTITLE15=June Christy - willow weep for me
TTITLE16=June Christy - across the valley from the alamo
TTITLE17=June Christy - it's been a long, long time
TTITLE18=June Christy - shoo fly pie and apple pan dowdy
TTITLE19=June Christy - just a sittin' and a rockin'
TTITLE20=June Christy - tampico
TTITLE21=Anita O'Day - and her tears flowed like wine
TTITLE22=Anita O'Day - gotta' be gettin' 
TTITLE23=Anita O'Day - are you livin' old man
TTITLE24=Anita O'Day - I'm going mad for a pad
EXTD=YEAR: 1996
EXTT0=
EXTT1=
EXTT2=
EXTT3=
EXTT4=
EXTT5=
EXTT6=
EXTT7=
EXTT8=
EXTT9=
EXTT10=
EXTT11=
EXTT12=
EXTT13=
EXTT14=
EXTT15=
EXTT16=
EXTT17=
EXTT18=
EXTT19=
EXTT20=
EXTT21=
EXTT22=
EXTT23=
EXTT24=
PLAYORDER=
